<svg xmlns="http://www.w3.org/2000/svg" viewBox="0 0 216 216">
  <path fill="#5F95B8" d="M213.259 2.739C211.434.912 209.038 0 206.645 0c-2.395 0-4.787.912-6.615 2.739L70.474 132.298 15.971 77.794c-1.828-1.829-4.219-2.741-6.614-2.741-2.395 0-4.789.915-6.617 2.741-3.653 3.653-3.653 9.576 0 13.231l61.119 61.117a9.357 9.357 0 0 0 6.615 2.74c2.48 0 4.858-.987 6.614-2.74L213.259 15.97c3.653-3.653 3.653-9.577 0-13.231z"/>
  <path fill="#B42126" d="M86.798 161.865c-4.364 4.358-10.162 6.759-16.324 6.759-6.173 0-11.973-2.402-16.332-6.764l-32.536-32.535v.952c0 47.957 86.399 85.181 86.399 85.181s86.401-40.14 86.401-85.181V54.256L86.798 161.865z"/>
  <path fill="#005682" d="M25.688 68.077l44.786 44.788L173.997 9.341C158.294 4.918 134.734 0 107.603 0 58.309 0 21.605 16.235 21.605 16.235v48.592c1.462.918 2.833 2 4.083 3.25z"/>
</svg>
