<svg xmlns="http://www.w3.org/2000/svg" viewBox="0 0 828 216">
  <g fill="#B42126">
    <path d="M523.179 147.306c-6.972-3.872-12.424-9.213-16.351-16.019-3.93-6.807-5.893-14.525-5.893-23.157s1.963-16.351 5.893-23.157c3.927-6.806 9.379-12.118 16.351-15.936 6.973-3.818 14.829-5.727 23.572-5.727 8.741 0 16.571 1.909 23.489 5.727 6.915 3.818 12.338 9.13 16.268 15.936 3.928 6.806 5.894 14.525 5.894 23.157s-1.966 16.351-5.894 23.157c-3.93 6.806-9.353 12.146-16.268 16.019-6.918 3.875-14.748 5.811-23.489 5.811-8.743-.001-16.6-1.936-23.572-5.811zm38.761-12.035c4.481-2.599 7.993-6.251 10.541-10.956 2.544-4.702 3.817-10.097 3.817-16.185 0-6.085-1.273-11.48-3.817-16.185-2.548-4.703-6.06-8.326-10.541-10.873-4.482-2.544-9.545-3.818-15.189-3.818s-10.707 1.274-15.188 3.818c-4.482 2.547-8.025 6.17-10.624 10.873-2.602 4.705-3.901 10.1-3.901 16.185 0 6.088 1.3 11.482 3.901 16.185 2.599 4.705 6.142 8.357 10.624 10.956 4.481 2.602 9.545 3.901 15.188 3.901 5.645 0 10.707-1.3 15.189-3.901zM628.755 67.293c5.421-2.656 12.006-3.984 19.754-3.984v15.438c-.888-.109-2.104-.166-3.652-.166-8.632 0-15.412 2.573-20.335 7.719-4.926 5.146-7.387 12.479-7.387 21.995v43.824h-15.937V64.14h15.272v14.774c2.765-5.089 6.861-8.964 12.285-11.621zM792.345 72.938c6.475 6.419 9.711 15.936 9.711 28.552v50.63H786.12v-48.805c0-8.521-1.966-14.94-5.893-19.256-3.93-4.316-9.546-6.474-16.85-6.474-8.079 0-14.499 2.519-19.256 7.553-4.759 5.037-7.138 12.258-7.138 21.663v45.318h-15.936v-48.805c0-8.521-1.967-14.94-5.894-19.256-3.93-4.316-9.545-6.474-16.849-6.474-8.08 0-14.499 2.519-19.256 7.553-4.76 5.037-7.139 12.258-7.139 21.663v45.318h-15.936V64.14h15.271v13.114c3.209-4.536 7.413-7.994 12.616-10.375 5.2-2.378 11.122-3.569 17.762-3.569 6.861 0 12.948 1.385 18.261 4.15 5.312 2.768 9.404 6.806 12.283 12.118 3.32-5.089 7.939-9.073 13.861-11.952 5.919-2.876 12.587-4.316 20.003-4.316 11.069 0 19.841 3.211 26.315 9.628z"/>
  </g>
  <path fill="#005682" d="M282.962 68.346c6.749 3.763 12.034 9.021 15.853 15.77 3.818 6.751 5.728 14.554 5.728 23.405 0 8.855-1.909 16.684-5.728 23.49-3.818 6.806-9.104 12.092-15.853 15.853-6.751 3.764-14.388 5.644-22.908 5.644-6.309 0-12.092-1.217-17.348-3.651-5.257-2.433-9.711-5.976-13.362-10.624v45.484h-15.937V63.532h15.272v13.944c3.54-4.869 8.022-8.549 13.446-11.04 5.421-2.49 11.396-3.735 17.928-3.735 8.521.001 16.158 1.884 22.909 5.645zm-9.048 66.317c4.482-2.599 8.023-6.251 10.625-10.956 2.599-4.702 3.9-10.098 3.9-16.186 0-6.084-1.302-11.479-3.9-16.184-2.602-4.703-6.143-8.326-10.625-10.873-4.481-2.545-9.545-3.818-15.188-3.818-5.535 0-10.541 1.302-15.023 3.9-4.481 2.602-8.024 6.225-10.623 10.873-2.602 4.648-3.901 10.018-3.901 16.102 0 6.088 1.271 11.483 3.817 16.186 2.545 4.705 6.086 8.357 10.625 10.956 4.536 2.602 9.57 3.901 15.105 3.901 5.643 0 10.707-1.299 15.188-3.901zM397.5 112.834h-71.379c.995 7.748 4.398 13.973 10.209 18.676 5.809 4.705 13.03 7.055 21.662 7.055 10.513 0 18.979-3.541 25.398-10.624l8.798 10.292c-3.983 4.648-8.938 8.191-14.856 10.624-5.922 2.435-12.533 3.651-19.838 3.651-9.296 0-17.541-1.908-24.734-5.727-7.194-3.818-12.756-9.156-16.682-16.02-3.93-6.859-5.894-14.607-5.894-23.24 0-8.52 1.909-16.211 5.728-23.073 3.817-6.86 9.072-12.201 15.77-16.019 6.694-3.818 14.247-5.727 22.658-5.727 8.41 0 15.908 1.909 22.494 5.727 6.582 3.818 11.729 9.159 15.438 16.019 3.707 6.862 5.561 14.72 5.561 23.571-.001 1.22-.112 2.823-.333 4.815zM335.168 83.12c-5.146 4.647-8.163 10.735-9.047 18.261h56.439c-.887-7.414-3.901-13.473-9.047-18.178-5.146-4.702-11.537-7.055-19.174-7.055-7.634 0-14.026 2.325-19.171 6.972zM451.418 77.976l4.574-15.265c-7.539.085-15.736 1.408-20.977 3.976-5.424 2.656-9.519 6.531-12.283 11.621V63.532H407.46v87.979h15.937v-43.824c0-9.516 2.461-16.848 7.387-21.994 4.923-5.146 11.703-7.719 20.335-7.719.088.001.199.002.299.002z"/>
  <path fill="#B42126" d="M517.95 38.213c-.648-.523-1.405-.968-2.251-1.349-2.189-1.177-11.997-5.753-23.764-.479-13.992 6.274-24.162 23.791-30.249 52.075h-14.997l-4.004 13.361h16.344c-.652 3.399-1.293 6.795-1.922 10.134-6.345 33.653-13.535 71.796-27.918 79.733-1.661.917-4.154 1.875-8.077 1.285-.144-.18-.281-.356-.429-.54-1.033-1.261-2.213-2.277-3.535-3.051s-2.875-1.16-4.658-1.16c-2.988 0-5.188.945-6.598 2.836-1.408 1.891-2.113 4.067-2.113 6.531 0 2.922 1.189 5.342 3.566 7.262.77.62 1.692 1.13 2.74 1.55l-.005.013c.125.05.249.091.374.14.068.024.134.051.203.075 4.446 1.688 8.72 2.54 12.793 2.54 4.773 0 9.275-1.158 13.469-3.472 20.979-11.578 28.232-50.049 35.91-90.777.813-4.315 1.647-8.72 2.496-13.099H493c.426-4.657 1.379-9.12 2.854-13.361h-17.771c6.366-27.075 15.233-35.032 20.141-37.356 2.18-1.033 4.202-1.252 5.85-1.152.178.225.354.448.539.679 1.033 1.261 2.213 2.277 3.535 3.051s2.875 1.16 4.658 1.16c2.988 0 5.188-.945 6.598-2.836 1.408-1.891 2.113-4.067 2.113-6.531 0-2.922-1.19-5.342-3.567-7.262z"/>
  <path fill="#5F95B8" d="M199.772 19.622c-1.522-1.524-3.521-2.285-5.517-2.285-1.997 0-3.992.761-5.517 2.285L80.691 127.671 35.237 82.216c-1.524-1.525-3.519-2.286-5.517-2.286-1.997 0-3.994.763-5.519 2.286-3.047 3.046-3.047 7.986 0 11.035l50.973 50.971a7.802 7.802 0 0 0 5.517 2.285c2.069 0 4.052-.823 5.517-2.285L199.772 30.656c3.047-3.047 3.047-7.988 0-11.034z"/>
  <path fill="#B42126" d="M94.306 152.33c-3.64 3.635-8.475 5.637-13.614 5.637-5.147 0-9.984-2.004-13.62-5.641l-27.135-27.134v.794c0 39.995 72.056 71.039 72.056 71.039s72.058-33.476 72.058-71.039v-63.4L94.306 152.33z"/>
  <path fill="#005682" d="M43.341 74.112l37.351 37.352 86.337-86.337c-13.096-3.688-32.744-7.79-55.372-7.79-41.11 0-71.72 13.54-71.72 13.54v40.525c1.218.765 2.362 1.668 3.404 2.71z"/>
</svg>
