<svg xmlns="http://www.w3.org/2000/svg" viewBox="0 0 200 200">
  <g fill="none" fill-rule="evenodd">
    <path fill="#000" d="M93 176h70v16H93z"/>
    <path d="M73.317 176.055L50.16 199.213c-.91.91-2.334.91-3.244 0L34.683 186.98c-.91-.91-.91-2.333 0-3.243l3.13-3.13c.91-.91 2.332-.91 3.242 0l7.483 7.483 18.407-18.407c.91-.91 2.332-.91 3.243 0l3.13 3.13c.91.91.91 2.332 0 3.242z" fill="#43A047"/>
    <path fill="#000" d="M93 125h70v16H93z"/>
    <path d="M73.317 125.055L50.16 148.213c-.91.91-2.334.91-3.244 0L34.683 135.98c-.91-.91-.91-2.333 0-3.243l3.13-3.13c.91-.91 2.332-.91 3.242 0l7.483 7.483 18.407-18.407c.91-.91 2.332-.91 3.243 0l3.13 3.13c.91.91.91 2.332 0 3.242z" fill="#43A047"/>
    <path d="M123.702 39.636c-1.534 12.636-3.196 27.72-9.395 37.906-3.77 6.125-8.18 2.708-11.12-2.32 1.277-4.964 1.725-10.508 2.108-15.086.64-7.542 1.023-19.984-4.985-24.11-1.087-.71-3.9-1.096-4.282 1.16-2.173 11.798-3.388 24.95.51 36.295.257.84.64 1.62 1.024 2.45-1.918 5.93-5.88 11.35-10.866 7.35-.255-.19-.51-.45-.703-.64 1.215-2.9 2.11-6.06 2.876-8.96 2.55-10.12 5.62-29.01.06-38.36-2.37-4.06-7.35-2.9-9.59.65-3.71 5.93-3.07 17.34-2.88 24.498.127 6.64.063 15.28 3.003 21.017.256.515.51.967.83 1.418-3.32 6.448-7.605 6.254-12.398.065-.193-.256-.45-.58-.64-.9 1.853-5.35 2.62-11.734 3.07-17.15.765-9.35.7-21.467-3.773-29.27-1.724-2.772-5.24-5.16-7.86-3.545-3.45 2.062-4.025 7.025-4.536 11.603-1.534 13.86.703 28.107 7.286 38.808-2.3 5.224-5.753 7.867-10.738 1.87C43.74 76.06 39.33 60.59 38.18 48.34c-.32-3.096-5.432-2.84-5.177.19 1.15 11.99 4.983 23.98 10.224 33.72 3.9 7.22 11.695 14.31 18.342 8.766 1.212-1.032 2.3-2.32 3.193-3.804 4.03 4.77 9.33 7.42 14.51 4.32 1.726-1.03 3.196-2.64 4.41-4.573 4.283 3.35 9.715 3.092 14.19-1.228 1.28-1.224 2.3-2.836 3.195-4.577 3.386 3.61 7.796 5.543 11.95 3.803 12.078-4.965 14.187-31.525 15.85-45.514.32-2.9-4.794-2.9-5.18.193zM59.15 58.526c-.128-1.226.64-22.564 1.406-22.05 6.52 4.514 4.92 24.047 4.154 31.654-.255 2.32-.64 5.093-1.278 7.736-2.237-5.222-3.643-11.152-4.282-17.34zm24.606-20.372c.895-1.806 1.598 2.127 1.918 3.48.83 3.804.703 8.123.64 12.056-.193 7.542-1.28 15.214-3.452 22.305-.448-2.256-.64-4.577-.83-6.77-.768-8.96-2.174-23.207 1.724-31.07zm16.17 6.575c1.47 5.6.767 13.92-.255 20.62-1.15-6.577-.7-13.86.26-20.63z" fill="#FBB034" fill-rule="nonzero"/>
    <path d="M0 200h16V16h129v39h39v145h16V48L152 0H14S7.877 1.34 4.374 5.055C.87 8.77 0 14 0 14v186z" fill="#000"/>
  </g>
</svg>
